<?xml version="1.0" encoding="UTF-8"?>
<svg xmlns="http://www.w3.org/2000/svg" xmlns:xlink="http://www.w3.org/1999/xlink" width="2400px" height="1350px" viewBox="0 0 2400 1350" version="1.1">
<g id="surface1">
<path style=" stroke:none;fill-rule:nonzero;fill:rgb(55.686277%,91.37255%,89.803922%);fill-opacity:1;" d="M 1199.625 554.6875 C 1201.464844 554.695312 1201.464844 554.695312 1203.339844 554.703125 C 1236.640625 555.148438 1265.035156 569.066406 1288.484375 592.480469 C 1313.3125 618.582031 1321.023438 650.453125 1320.292969 685.605469 C 1319.992188 695.144531 1318.128906 703.996094 1315 713 C 1314.742188 713.75 1314.484375 714.5 1314.222656 715.273438 C 1308.453125 731.574219 1299.621094 745.285156 1288 758 C 1287.332031 758.738281 1286.667969 759.476562 1285.980469 760.234375 C 1267.5625 779.621094 1239.691406 793.699219 1212.773438 795.175781 C 1181.179688 795.734375 1181.179688 795.734375 1166 791 C 1165.308594 790.785156 1164.617188 790.570312 1163.90625 790.351562 C 1148.1875 785.289062 1134.703125 777.480469 1122 767 C 1121.4375 766.558594 1120.875 766.113281 1120.296875 765.65625 C 1118.828125 764.484375 1117.410156 763.246094 1116 762 C 1116 761.339844 1116 760.679688 1116 760 C 1115.339844 760 1114.679688 760 1114 760 C 1093.804688 741.527344 1081.390625 711.082031 1079.835938 684.15625 C 1078.421875 648.007812 1089.554688 616.914062 1114 590 C 1116.546875 587.496094 1119.214844 585.234375 1122 583 C 1122.734375 582.367188 1123.46875 581.734375 1124.226562 581.082031 C 1145.226562 563.402344 1172.375 554.554688 1199.625 554.6875 Z M 1199.625 554.6875 "/>
<path style=" stroke:none;fill-rule:nonzero;fill:rgb(82.745099%,83.529413%,85.09804%);fill-opacity:1;" d="M 1196.4375 568.8125 C 1197.238281 568.824219 1198.035156 568.832031 1198.859375 568.84375 C 1201.238281 568.882812 1203.621094 568.941406 1206 569 C 1207.261719 569.019531 1208.527344 569.035156 1209.828125 569.054688 C 1215.488281 569.277344 1220.21875 569.570312 1224.648438 573.355469 C 1226.746094 575.910156 1227.929688 578.628906 1229.089844 581.707031 C 1229.949219 583.871094 1230.992188 585.550781 1232.25 587.5 C 1234.40625 591.714844 1234.363281 595.863281 1234.375 600.5 C 1234.375 601.210938 1234.378906 601.925781 1234.378906 602.65625 C 1234.300781 606.425781 1233.878906 609.820312 1232.914062 613.46875 C 1232.613281 614.632812 1232.3125 615.800781 1232 617 C 1232.328125 617.328125 1232.660156 617.660156 1233 618 C 1233.578125 623.886719 1233.558594 629.039062 1230 634 C 1229.335938 634.128906 1228.671875 634.253906 1227.988281 634.386719 C 1227.332031 634.589844 1226.675781 634.792969 1226 635 C 1224.96875 636.914062 1224.96875 636.914062 1224.4375 639.25 C 1223.613281 642.121094 1222.972656 644.042969 1221.3125 646.5625 C 1219.449219 650.027344 1219.480469 653.199219 1220 657 C 1221.71875 662.492188 1225.410156 665.355469 1229.746094 668.875 C 1234.574219 673.429688 1236.734375 678.316406 1238.1875 684.6875 C 1238.355469 685.398438 1238.523438 686.109375 1238.695312 686.839844 C 1241.488281 699.144531 1241.109375 711.449219 1241 724 C 1239.679688 724.328125 1238.359375 724.660156 1237 725 C 1236.230469 729.117188 1235.714844 731.949219 1236.8125 736 C 1239.515625 738.472656 1240.601562 738.296875 1244.1875 738.3125 C 1245.792969 738.230469 1247.398438 738.136719 1249 738 C 1250.183594 734.445312 1250.265625 731.730469 1250 728 C 1248.28125 725.625 1246.488281 724.65625 1244 723 C 1243.632812 721.179688 1243.632812 721.179688 1243.628906 718.949219 C 1243.613281 718.117188 1243.597656 717.28125 1243.585938 716.421875 C 1243.578125 715.519531 1243.570312 714.617188 1243.5625 713.6875 C 1243.292969 703.21875 1241.628906 693.34375 1239.441406 683.125 C 1238.882812 680.429688 1238.425781 677.71875 1238 675 C 1239.011719 675.421875 1239.011719 675.421875 1240.042969 675.855469 C 1242.789062 676.917969 1245.558594 677.824219 1248.367188 678.699219 C 1259.300781 682.148438 1266.921875 685.859375 1272.75 696.0625 C 1275.152344 701.710938 1275.265625 707.347656 1275.535156 713.402344 C 1275.578125 714.316406 1275.621094 715.230469 1275.664062 716.171875 C 1275.753906 718.109375 1275.84375 720.042969 1275.929688 721.980469 C 1276.0625 724.894531 1276.199219 727.8125 1276.335938 730.726562 C 1276.425781 732.621094 1276.511719 734.511719 1276.597656 736.402344 C 1276.636719 737.253906 1276.679688 738.109375 1276.722656 738.984375 C 1277.042969 746.34375 1277 753.609375 1277 761 C 1226.511719 761 1176.019531 761 1124 761 C 1124 733.761719 1124 733.761719 1124.691406 721.804688 C 1124.816406 719.574219 1124.921875 717.34375 1125.023438 715.109375 C 1125.578125 704.558594 1126.460938 695.707031 1133.996094 687.78125 C 1140.589844 681.921875 1148.71875 679.558594 1157 677 C 1159 676.335938 1161 675.671875 1163 675 C 1162.566406 676.21875 1162.132812 677.433594 1161.6875 678.6875 C 1158.839844 687.242188 1156.878906 696.027344 1156 705 C 1155.003906 705.328125 1155.003906 705.328125 1153.988281 705.664062 C 1146.792969 708.25 1143.421875 710.613281 1139.6875 717.375 C 1137.792969 724.613281 1139.539062 731.835938 1141 739 C 1141.191406 739.964844 1141.382812 740.929688 1141.578125 741.925781 C 1142.046875 744.285156 1142.523438 746.644531 1143 749 C 1145.96875 749.988281 1148.941406 750.980469 1152 752 C 1152 750.019531 1152 748.039062 1152 746 C 1148.535156 746.988281 1148.535156 746.988281 1145 748 C 1142.878906 741.074219 1141.636719 734.269531 1141.125 727.0625 C 1141.0625 726.339844 1141.003906 725.621094 1140.941406 724.878906 C 1140.605469 719.011719 1142.183594 716.195312 1145.8125 711.8125 C 1149.945312 708.386719 1153.757812 707.792969 1159 708.0625 C 1164.179688 708.730469 1166.492188 710.148438 1170 714 C 1174.410156 720.765625 1173.121094 727.207031 1171.578125 734.726562 C 1171.386719 735.621094 1171.195312 736.515625 1171 737.4375 C 1170.808594 738.359375 1170.617188 739.28125 1170.421875 740.234375 C 1169.953125 742.488281 1169.480469 744.746094 1169 747 C 1165.886719 747 1163.890625 746.828125 1161 746 C 1161 747.980469 1161 749.960938 1161 752 C 1164.445312 751.632812 1167.121094 750.96875 1170 749 C 1171.820312 744.789062 1172.410156 740.53125 1173 736 C 1173.226562 734.78125 1173.453125 733.566406 1173.6875 732.3125 C 1174.78125 721 1174.78125 721 1170 711 C 1166.6875 708.347656 1163.117188 706.929688 1159 706 C 1158.242188 693.316406 1161.460938 680.765625 1169.4375 670.6875 C 1172 668 1172 668 1175.0625 665.75 C 1179.019531 662.585938 1181.078125 657.917969 1182 653 C 1181.320312 650.484375 1181.320312 650.484375 1180 648 C 1179.558594 647.03125 1179.121094 646.0625 1178.667969 645.0625 C 1175.664062 638.703125 1175.664062 638.703125 1171.25 633.3125 C 1167.988281 629.957031 1167.378906 626.589844 1167 622 C 1167.140625 619.671875 1167.40625 617.4375 1167.808594 615.140625 C 1168.039062 612.578125 1167.539062 610.507812 1167 608 C 1166.316406 597.945312 1166.367188 586.753906 1173.152344 578.75 C 1176.433594 575.640625 1180.085938 573.234375 1184 571 C 1184.578125 570.621094 1185.152344 570.238281 1185.746094 569.847656 C 1189.242188 568.53125 1192.757812 568.75 1196.4375 568.8125 Z M 1196.4375 568.8125 "/>
<path style=" stroke:none;fill-rule:nonzero;fill:rgb(82.745099%,83.529413%,85.490197%);fill-opacity:1;" d="M 1222 663 C 1223.269531 663.925781 1224.535156 664.855469 1225.796875 665.789062 C 1226.855469 666.566406 1226.855469 666.566406 1227.933594 667.359375 C 1237.390625 674.871094 1239.429688 686.789062 1240.75 698.25 C 1241.316406 706.804688 1241.074219 715.433594 1241 724 C 1239.019531 724.496094 1239.019531 724.496094 1237 725 C 1236.230469 729.117188 1235.714844 731.949219 1236.8125 736 C 1239.515625 738.472656 1240.601562 738.296875 1244.1875 738.3125 C 1245.792969 738.230469 1247.398438 738.136719 1249 738 C 1250.183594 734.445312 1250.265625 731.730469 1250 728 C 1248.28125 725.625 1246.488281 724.65625 1244 723 C 1243.632812 721.179688 1243.632812 721.179688 1243.628906 718.949219 C 1243.613281 718.117188 1243.597656 717.28125 1243.585938 716.421875 C 1243.578125 715.519531 1243.570312 714.617188 1243.5625 713.6875 C 1243.292969 703.21875 1241.628906 693.34375 1239.441406 683.125 C 1238.882812 680.429688 1238.425781 677.71875 1238 675 C 1238.675781 675.28125 1239.347656 675.566406 1240.042969 675.855469 C 1242.789062 676.917969 1245.558594 677.824219 1248.367188 678.699219 C 1259.300781 682.148438 1266.921875 685.859375 1272.75 696.0625 C 1275.152344 701.710938 1275.265625 707.347656 1275.535156 713.402344 C 1275.601562 714.773438 1275.601562 714.773438 1275.664062 716.171875 C 1275.753906 718.109375 1275.84375 720.042969 1275.929688 721.980469 C 1276.0625 724.894531 1276.199219 727.8125 1276.335938 730.726562 C 1276.425781 732.621094 1276.511719 734.511719 1276.597656 736.402344 C 1276.636719 737.253906 1276.679688 738.109375 1276.722656 738.984375 C 1277.042969 746.34375 1277 753.609375 1277 761 C 1252.578125 761 1228.160156 761 1203 761 C 1197.367188 749.738281 1193.875 737.652344 1195 725 C 1195.070312 724.167969 1195.144531 723.335938 1195.21875 722.480469 C 1195.554688 718.625 1195.898438 714.765625 1196.289062 710.914062 C 1197.730469 701.640625 1197.730469 701.640625 1195.835938 692.863281 C 1195.113281 692.09375 1195.113281 692.09375 1194.375 691.3125 C 1193.003906 689.582031 1193.003906 689.582031 1192 688 C 1192.605469 683.160156 1196.792969 679.5 1200 676 C 1206.664062 682.484375 1206.664062 682.484375 1208 685 C 1207.296875 687.554688 1206.335938 689.496094 1204.871094 691.691406 C 1203.609375 695.03125 1204.234375 698 1204.75 701.4375 C 1204.953125 702.945312 1205.152344 704.453125 1205.351562 705.960938 C 1205.457031 706.765625 1205.566406 707.570312 1205.675781 708.402344 C 1206.261719 713.113281 1206.6875 717.835938 1207.125 722.5625 C 1207.210938 723.496094 1207.300781 724.429688 1207.390625 725.394531 C 1207.59375 727.597656 1207.796875 729.796875 1208 732 C 1208.660156 732 1209.320312 732 1210 732 C 1210.085938 730.878906 1210.171875 729.757812 1210.257812 728.601562 C 1211.039062 721.570312 1212.765625 714.707031 1214.324219 707.816406 C 1217.683594 692.929688 1220.472656 678.203125 1222 663 Z M 1222 663 "/>
<path style=" stroke:none;fill-rule:nonzero;fill:rgb(97.647059%,82.352942%,38.431373%);fill-opacity:1;" d="M 1196.4375 568.8125 C 1197.238281 568.824219 1198.035156 568.832031 1198.859375 568.84375 C 1201.238281 568.882812 1203.621094 568.941406 1206 569 C 1207.261719 569.019531 1208.527344 569.035156 1209.828125 569.054688 C 1215.488281 569.277344 1220.21875 569.570312 1224.648438 573.355469 C 1226.746094 575.910156 1227.929688 578.628906 1229.089844 581.707031 C 1229.949219 583.871094 1230.992188 585.550781 1232.25 587.5 C 1234.40625 591.714844 1234.363281 595.863281 1234.375 600.5 C 1234.375 601.210938 1234.378906 601.925781 1234.378906 602.65625 C 1234.300781 606.425781 1233.878906 609.820312 1232.914062 613.46875 C 1232.613281 614.632812 1232.3125 615.800781 1232 617 C 1232.328125 617.328125 1232.660156 617.660156 1233 618 C 1233.578125 623.886719 1233.558594 629.039062 1230 634 C 1229.335938 634.128906 1228.667969 634.257812 1227.984375 634.390625 C 1227.003906 634.691406 1227.003906 634.691406 1226 635 C 1225.003906 636.882812 1225.003906 636.882812 1224.5 639.1875 C 1223.285156 643.394531 1221.453125 646.359375 1219 650 C 1218.773438 651.074219 1218.546875 652.144531 1218.3125 653.25 C 1216.296875 659.003906 1212.15625 662.644531 1208 667 C 1206.636719 668.535156 1205.28125 670.074219 1203.9375 671.625 C 1203.367188 672.277344 1202.800781 672.929688 1202.214844 673.601562 C 1201.8125 674.0625 1201.414062 674.523438 1201 675 C 1193.65625 669.09375 1185.074219 662.136719 1182 653 C 1177.957031 642.316406 1177.957031 642.316406 1171.25 633.3125 C 1167.988281 629.957031 1167.378906 626.589844 1167 622 C 1167.140625 619.671875 1167.40625 617.4375 1167.808594 615.140625 C 1168.039062 612.578125 1167.539062 610.507812 1167 608 C 1166.316406 597.945312 1166.367188 586.753906 1173.152344 578.75 C 1176.433594 575.640625 1180.085938 573.234375 1184 571 C 1184.578125 570.621094 1185.152344 570.238281 1185.746094 569.847656 C 1189.242188 568.53125 1192.757812 568.75 1196.4375 568.8125 Z M 1196.4375 568.8125 "/>
<path style=" stroke:none;fill-rule:nonzero;fill:rgb(83.137256%,83.529413%,85.490197%);fill-opacity:1;" d="M 1222 663 C 1234.457031 672.011719 1234.457031 672.011719 1236.625 679.019531 C 1237.652344 685.929688 1236.640625 693.089844 1236 700 C 1233.691406 700.988281 1231.378906 701.980469 1229 703 C 1229.34375 704.011719 1229.34375 704.011719 1229.691406 705.046875 C 1230.121094 706.386719 1230.121094 706.386719 1230.5625 707.75 C 1230.851562 708.632812 1231.140625 709.511719 1231.441406 710.421875 C 1232.328125 714.515625 1231.335938 716.433594 1229.191406 720.035156 C 1228.417969 721.214844 1227.636719 722.386719 1226.851562 723.558594 C 1226.230469 724.496094 1226.230469 724.496094 1225.597656 725.457031 C 1224.28125 727.453125 1222.953125 729.445312 1221.625 731.4375 C 1220.304688 733.425781 1218.988281 735.417969 1217.671875 737.410156 C 1216.851562 738.644531 1216.035156 739.878906 1215.210938 741.113281 C 1212 745.945312 1209.023438 750.546875 1207 756 C 1206.339844 756 1205.679688 756 1205 756 C 1204.339844 757.320312 1203.679688 758.640625 1203 760 C 1196.585938 750.378906 1193.851562 736.34375 1195 725 C 1195.15625 723.222656 1195.3125 721.441406 1195.46875 719.664062 C 1195.726562 716.746094 1195.992188 713.828125 1196.289062 710.914062 C 1197.730469 701.640625 1197.730469 701.640625 1195.835938 692.863281 C 1195.113281 692.09375 1195.113281 692.09375 1194.375 691.3125 C 1193.003906 689.582031 1193.003906 689.582031 1192 688 C 1192.605469 683.160156 1196.792969 679.5 1200 676 C 1206.664062 682.484375 1206.664062 682.484375 1208 685 C 1207.296875 687.554688 1206.335938 689.496094 1204.871094 691.691406 C 1203.609375 695.03125 1204.234375 698 1204.75 701.4375 C 1204.953125 702.945312 1205.152344 704.453125 1205.351562 705.960938 C 1205.457031 706.765625 1205.566406 707.570312 1205.675781 708.402344 C 1206.261719 713.113281 1206.6875 717.835938 1207.125 722.5625 C 1207.210938 723.496094 1207.300781 724.429688 1207.390625 725.394531 C 1207.59375 727.597656 1207.796875 729.796875 1208 732 C 1208.660156 732 1209.320312 732 1210 732 C 1210.085938 730.878906 1210.171875 729.757812 1210.257812 728.601562 C 1211.039062 721.570312 1212.765625 714.707031 1214.324219 707.816406 C 1217.683594 692.929688 1220.472656 678.203125 1222 663 Z M 1222 663 "/>
<path style=" stroke:none;fill-rule:nonzero;fill:rgb(23.529412%,34.509805%,41.960785%);fill-opacity:1;" d="M 1196.4375 568.8125 C 1197.238281 568.824219 1198.035156 568.832031 1198.859375 568.84375 C 1201.238281 568.882812 1203.621094 568.941406 1206 569 C 1207.261719 569.019531 1208.527344 569.035156 1209.828125 569.054688 C 1215.488281 569.277344 1220.21875 569.570312 1224.648438 573.355469 C 1226.746094 575.910156 1227.929688 578.628906 1229.089844 581.707031 C 1229.949219 583.871094 1230.992188 585.550781 1232.25 587.5 C 1236.386719 595.789062 1234.914062 607.003906 1232.203125 615.542969 C 1231.210938 618.394531 1230.140625 621.203125 1229 624 C 1228.339844 624 1227.679688 624 1227 624 C 1225.40625 619.753906 1224.765625 616.148438 1224.625 611.625 C 1224.128906 603.828125 1221.664062 599.089844 1217 593 C 1215.351562 593.476562 1213.707031 593.957031 1212.0625 594.4375 C 1211.144531 594.703125 1210.230469 594.972656 1209.285156 595.246094 C 1207.058594 595.789062 1207.058594 595.789062 1206 597 C 1203.9375 596.988281 1201.871094 596.886719 1199.8125 596.75 C 1198.683594 596.683594 1197.554688 596.617188 1196.394531 596.546875 C 1190.175781 595.941406 1184.085938 594.375 1178 593 C 1177.945312 593.886719 1177.890625 594.777344 1177.832031 595.691406 C 1177.625 598.992188 1177.414062 602.296875 1177.199219 605.597656 C 1177.109375 607.023438 1177.019531 608.453125 1176.929688 609.882812 C 1176.800781 611.9375 1176.667969 613.992188 1176.535156 616.046875 C 1176.457031 617.28125 1176.378906 618.519531 1176.296875 619.792969 C 1176.0625 622.332031 1175.726562 624.566406 1175 627 C 1174.339844 627 1173.679688 627 1173 627 C 1172.183594 624.773438 1171.371094 622.542969 1170.5625 620.3125 C 1170.332031 619.6875 1170.101562 619.0625 1169.867188 618.414062 C 1165.96875 607.632812 1165.800781 596.054688 1169 585 C 1172.273438 578.398438 1177.730469 574.578125 1184 571 C 1184.578125 570.621094 1185.152344 570.238281 1185.746094 569.847656 C 1189.242188 568.53125 1192.757812 568.75 1196.4375 568.8125 Z M 1196.4375 568.8125 "/>
<path style=" stroke:none;fill-rule:nonzero;fill:rgb(91.37255%,93.333334%,94.117647%);fill-opacity:1;" d="M 1218 650 C 1218.328125 650 1218.660156 650 1219 650 C 1219.199219 650.921875 1219.199219 650.921875 1219.402344 651.863281 C 1219.578125 652.671875 1219.753906 653.480469 1219.9375 654.3125 C 1220.113281 655.113281 1220.285156 655.914062 1220.464844 656.738281 C 1221 659.144531 1221 659.144531 1222 662 C 1222.492188 668.90625 1221.679688 675.582031 1220.5 682.375 C 1220.332031 683.363281 1220.164062 684.355469 1219.992188 685.375 C 1217.238281 701.027344 1213.554688 716.511719 1210 732 C 1209.339844 732 1208.679688 732 1208 732 C 1207.109375 725.949219 1206.25 719.894531 1205.40625 713.835938 C 1205.035156 711.242188 1204.628906 708.652344 1204.214844 706.066406 C 1203.996094 704.585938 1203.777344 703.105469 1203.5625 701.625 C 1203.445312 700.957031 1203.328125 700.285156 1203.207031 699.597656 C 1202.441406 694.046875 1204.144531 691.535156 1207 687 C 1206.246094 682.472656 1203.292969 680.03125 1200 677 C 1198.769531 678.375 1197.566406 679.777344 1196.375 681.1875 C 1195.367188 682.351562 1195.367188 682.351562 1194.335938 683.542969 C 1192.683594 685.929688 1192.683594 685.929688 1193.601562 688.550781 C 1194.886719 691.003906 1194.886719 691.003906 1196.636719 692.804688 C 1198.707031 696.136719 1198.136719 699.363281 1197.8125 703.125 C 1197.757812 703.90625 1197.703125 704.6875 1197.644531 705.492188 C 1197.003906 714.019531 1196.03125 722.515625 1195 731 C 1193 730 1193 730 1192.195312 727.921875 C 1191.9375 727.015625 1191.679688 726.113281 1191.414062 725.179688 C 1191.125 724.175781 1190.835938 723.175781 1190.539062 722.140625 C 1190.238281 721.0625 1189.933594 719.984375 1189.625 718.875 C 1189.3125 717.777344 1189 716.679688 1188.679688 715.546875 C 1188.058594 713.355469 1187.445312 711.160156 1186.832031 708.964844 C 1186.15625 706.550781 1185.460938 704.144531 1184.757812 701.738281 C 1175.582031 669.40625 1175.582031 669.40625 1180.5 657.3125 C 1180.996094 656.550781 1181.488281 655.785156 1182 655 C 1186.058594 658.996094 1189.949219 663.128906 1193.8125 667.3125 C 1194.410156 667.957031 1195.007812 668.601562 1195.625 669.265625 C 1197.082031 670.84375 1198.542969 672.421875 1200 674 C 1204.902344 670.023438 1208.9375 665.832031 1213 661 C 1213.785156 660.132812 1214.566406 659.265625 1215.375 658.375 C 1217.292969 655.574219 1217.6875 653.351562 1218 650 Z M 1218 650 "/>
<path style=" stroke:none;fill-rule:nonzero;fill:rgb(99.215686%,44.705883%,35.294119%);fill-opacity:1;" d="M 1200 676 C 1206.664062 682.484375 1206.664062 682.484375 1208 685 C 1207.296875 687.550781 1206.34375 689.488281 1204.871094 691.675781 C 1203.59375 695.085938 1204.234375 698.171875 1204.75 701.6875 C 1204.949219 703.214844 1205.152344 704.746094 1205.351562 706.273438 C 1205.457031 707.054688 1205.566406 707.835938 1205.675781 708.644531 C 1208.21875 727.175781 1208.054688 741.878906 1203 760 C 1196.585938 750.378906 1193.851562 736.34375 1195 725 C 1195.15625 723.222656 1195.3125 721.441406 1195.46875 719.664062 C 1195.726562 716.746094 1195.992188 713.828125 1196.289062 710.914062 C 1197.730469 701.640625 1197.730469 701.640625 1195.835938 692.863281 C 1195.355469 692.351562 1194.871094 691.839844 1194.375 691.3125 C 1193.003906 689.582031 1193.003906 689.582031 1192 688 C 1192.605469 683.160156 1196.792969 679.5 1200 676 Z M 1200 676 "/>
<path style=" stroke:none;fill-rule:nonzero;fill:rgb(29.019609%,45.490196%,53.725493%);fill-opacity:1;" d="M 1178 660 C 1178.660156 660.328125 1179.320312 660.660156 1180 661 C 1177.226562 664.308594 1174.46875 667.542969 1171.375 670.5625 C 1161.921875 680.261719 1160.339844 693.097656 1159 706 C 1160.386719 706.199219 1160.386719 706.199219 1161.804688 706.402344 C 1166.34375 707.25 1169.457031 708.9375 1172.265625 712.691406 C 1176.980469 720.90625 1175.0625 729.457031 1173.6875 738.375 C 1173.570312 739.160156 1173.453125 739.945312 1173.332031 740.753906 C 1172.074219 748.199219 1172.074219 748.199219 1169 751 C 1166.304688 751.804688 1163.832031 751.8125 1161 752 C 1161 750.019531 1161 748.039062 1161 746 C 1164.464844 746.496094 1164.464844 746.496094 1168 747 C 1168.679688 743.816406 1169.339844 740.625 1170 737.4375 C 1170.191406 736.542969 1170.382812 735.648438 1170.578125 734.726562 C 1172.785156 725.257812 1172.785156 725.257812 1170.25 716.25 C 1167.769531 712.667969 1165.933594 710.511719 1161.667969 709.382812 C 1155.777344 708.769531 1152.160156 709.007812 1147 712 C 1144.203125 714.355469 1143.164062 715.511719 1142 719 C 1142.039062 721.664062 1142.140625 724.28125 1142.3125 726.9375 C 1142.359375 727.691406 1142.40625 728.445312 1142.453125 729.222656 C 1142.882812 735.558594 1143.761719 741.765625 1145 748 C 1146.484375 747.011719 1146.484375 747.011719 1148 746 C 1149.320312 746 1150.640625 746 1152 746 C 1152 747.980469 1152 749.960938 1152 752 C 1145.375 751.25 1145.375 751.25 1142 749 C 1141.292969 746.972656 1141.292969 746.972656 1140.832031 744.492188 C 1140.660156 743.585938 1140.492188 742.683594 1140.3125 741.75 C 1140.148438 740.800781 1139.984375 739.851562 1139.8125 738.875 C 1139.636719 737.949219 1139.457031 737.023438 1139.273438 736.070312 C 1137.828125 728.148438 1136.664062 721.097656 1140.738281 713.824219 C 1144.433594 708.480469 1148.78125 706.632812 1155 705 C 1155.160156 703.933594 1155.316406 702.871094 1155.480469 701.773438 C 1157.878906 686.472656 1160.90625 673.675781 1173 663 C 1175.6875 661.136719 1175.6875 661.136719 1178 660 Z M 1178 660 "/>
<path style=" stroke:none;fill-rule:nonzero;fill:rgb(32.156864%,47.843137%,55.686277%);fill-opacity:1;" d="M 1221 660 C 1224.9375 660.574219 1227.070312 662.457031 1230 665.0625 C 1230.84375 665.796875 1231.691406 666.53125 1232.5625 667.285156 C 1237.769531 673.085938 1239.6875 679.609375 1241.1875 687.125 C 1241.433594 688.285156 1241.433594 688.285156 1241.6875 689.464844 C 1242.144531 691.640625 1242.574219 693.820312 1243 696 C 1243.195312 696.953125 1243.394531 697.90625 1243.597656 698.886719 C 1243.957031 701.65625 1244.085938 704.285156 1244.140625 707.074219 C 1244.167969 708.445312 1244.167969 708.445312 1244.199219 709.84375 C 1244.234375 711.75 1244.25 713.65625 1244.253906 715.5625 C 1244.324219 718.136719 1244.421875 720.492188 1245 723 C 1247.335938 725.109375 1247.335938 725.109375 1250 726 C 1251.546875 729.089844 1251.292969 731.59375 1251 735 C 1249.5 737.4375 1249.5 737.4375 1247 739 C 1243.496094 739.621094 1240.265625 739.695312 1237.0625 737.9375 C 1235.070312 734.300781 1234.535156 730.613281 1235.6875 726.625 C 1237.328125 724.59375 1238.503906 724.519531 1241 724 C 1241.441406 694.996094 1241.441406 694.996094 1230 670 C 1227.929688 668.136719 1225.84375 666.324219 1223.671875 664.578125 C 1222 663 1222 663 1221 660 Z M 1221 660 "/>
<path style=" stroke:none;fill-rule:nonzero;fill:rgb(88.235295%,89.019608%,89.411765%);fill-opacity:1;" d="M 1208 685 C 1208.660156 686.320312 1209.320312 687.640625 1210 689 C 1210.660156 689 1211.320312 689 1212 689 C 1212.988281 690.484375 1212.988281 690.484375 1214 692 C 1214.640625 691.011719 1215.277344 690.019531 1215.9375 689 C 1216.617188 688.011719 1217.296875 687.019531 1218 686 C 1218.328125 686 1218.660156 686 1219 686 C 1218.375 695.769531 1216.113281 705.109375 1213.9375 714.625 C 1213.554688 716.3125 1213.175781 718.003906 1212.796875 719.691406 C 1211.871094 723.796875 1210.9375 727.898438 1210 732 C 1209.339844 732 1208.679688 732 1208 732 C 1207.253906 726.925781 1206.523438 721.851562 1205.820312 716.769531 C 1205.324219 713.214844 1204.785156 709.675781 1204.179688 706.136719 C 1202.972656 698.625 1202.191406 692.941406 1206.835938 686.371094 C 1207.21875 685.917969 1207.605469 685.464844 1208 685 Z M 1208 685 "/>
<path style=" stroke:none;fill-rule:nonzero;fill:rgb(88.235295%,89.019608%,89.411765%);fill-opacity:1;" d="M 1182 687 C 1183.648438 688.648438 1185.300781 690.300781 1187 692 C 1187.328125 691.339844 1187.660156 690.679688 1188 690 C 1188.660156 690 1189.320312 690 1190 690 C 1190.328125 689.011719 1190.660156 688.019531 1191 687 C 1192.355469 688.308594 1193.6875 689.648438 1195 691 C 1195.542969 691.539062 1196.089844 692.078125 1196.648438 692.632812 C 1198.625 696.09375 1198.144531 699.289062 1197.8125 703.125 C 1197.757812 703.90625 1197.703125 704.6875 1197.644531 705.492188 C 1197.003906 714.019531 1196.03125 722.515625 1195 731 C 1193 730 1193 730 1192.195312 727.921875 C 1191.808594 726.5625 1191.808594 726.5625 1191.414062 725.179688 C 1191.125 724.175781 1190.835938 723.171875 1190.539062 722.136719 C 1190.234375 721.0625 1189.933594 719.984375 1189.625 718.875 C 1189.160156 717.246094 1189.160156 717.246094 1188.6875 715.582031 C 1187.78125 712.390625 1186.890625 709.195312 1186 706 C 1185.765625 705.160156 1185.527344 704.324219 1185.285156 703.460938 C 1182 691.777344 1182 691.777344 1182 687 Z M 1182 687 "/>
<path style=" stroke:none;fill-rule:nonzero;fill:rgb(96.470588%,74.509805%,34.901962%);fill-opacity:1;" d="M 1216 652 C 1216.660156 652.328125 1217.320312 652.660156 1218 653 C 1217.4375 656.941406 1215.558594 658.894531 1212.875 661.75 C 1212.070312 662.617188 1211.265625 663.488281 1210.433594 664.382812 C 1209.230469 665.679688 1209.230469 665.679688 1208 667 C 1206.640625 668.535156 1205.285156 670.078125 1203.9375 671.625 C 1203.085938 672.601562 1203.085938 672.601562 1202.214844 673.601562 C 1201.8125 674.0625 1201.414062 674.523438 1201 675 C 1193.960938 669.339844 1185.59375 662.457031 1182 654 C 1183.761719 653.351562 1183.761719 653.351562 1186 653 C 1187.894531 653.960938 1187.894531 653.960938 1189.8125 655.375 C 1193.613281 657.886719 1196.332031 659 1201 659 C 1206.726562 657.765625 1211.324219 655.476562 1216 652 Z M 1216 652 "/>
<path style=" stroke:none;fill-rule:nonzero;fill:rgb(81.176472%,82.352942%,84.705883%);fill-opacity:1;" d="M 1164 679 C 1164.660156 679.328125 1165.320312 679.660156 1166 680 C 1167.390625 686.492188 1167.125 693.394531 1167 700 C 1169.308594 700.660156 1171.621094 701.320312 1174 702 C 1173.53125 706.054688 1173.121094 709.464844 1171 713 C 1170.503906 712.402344 1170.011719 711.804688 1169.5 711.1875 C 1166.203125 708.304688 1163.144531 707.382812 1159 706 C 1158.429688 696.445312 1160.308594 687.808594 1164 679 Z M 1164 679 "/>
<path style=" stroke:none;fill-rule:nonzero;fill:rgb(76.862746%,77.64706%,79.215688%);fill-opacity:1;" d="M 1237 685 C 1239.851562 689.535156 1239.148438 693.894531 1238.691406 699.046875 C 1238 702 1238 702 1234.9375 704.3125 C 1233.484375 704.652344 1233.484375 704.652344 1232 705 C 1232.496094 706.050781 1232.988281 707.105469 1233.5 708.1875 C 1234.941406 711.253906 1235.394531 713.613281 1235 717 C 1233.671875 719.296875 1233.671875 719.296875 1231.75 721.75 C 1231.027344 722.699219 1230.300781 723.648438 1229.554688 724.628906 C 1229.148438 725.15625 1228.746094 725.6875 1228.328125 726.230469 C 1225.757812 729.65625 1223.328125 733.179688 1220.875 736.6875 C 1217.015625 742.203125 1213.070312 747.636719 1209 753 C 1208.671875 752.339844 1208.339844 751.679688 1208 751 C 1209.296875 748.597656 1210.648438 746.351562 1212.125 744.0625 C 1212.785156 743.011719 1212.785156 743.011719 1213.457031 741.941406 C 1216.046875 737.863281 1218.761719 733.917969 1221.632812 730.03125 C 1222.234375 729.203125 1222.832031 728.375 1223.453125 727.523438 C 1224.632812 725.910156 1225.832031 724.3125 1227.058594 722.738281 C 1230.15625 718.5625 1230.15625 718.5625 1230.945312 713.574219 C 1230.445312 711.296875 1229.792969 709.191406 1229 707 C 1228.652344 705.671875 1228.316406 704.335938 1228 703 C 1232.625 700 1232.625 700 1236 700 C 1235.988281 699 1235.976562 698 1235.964844 696.972656 C 1235.957031 695.683594 1235.945312 694.390625 1235.9375 693.0625 C 1235.925781 691.773438 1235.914062 690.488281 1235.902344 689.160156 C 1236 686 1236 686 1237 685 Z M 1237 685 "/>
<path style=" stroke:none;fill-rule:nonzero;fill:rgb(75.686276%,76.862746%,78.823531%);fill-opacity:1;" d="M 1175 720 C 1175.273438 720.578125 1175.542969 721.15625 1175.824219 721.75 C 1177 724.003906 1178.320312 725.941406 1179.8125 728 C 1183.648438 733.429688 1187.339844 738.949219 1191 744.5 C 1191.601562 745.398438 1192.199219 746.292969 1192.820312 747.21875 C 1193.375 748.0625 1193.929688 748.910156 1194.5 749.78125 C 1195.257812 750.925781 1195.257812 750.925781 1196.03125 752.09375 C 1196.351562 752.722656 1196.671875 753.351562 1197 754 C 1196.671875 754.660156 1196.339844 755.320312 1196 756 C 1177 731.46875 1177 731.46875 1177 728 C 1176.339844 728 1175.679688 728 1175 728 C 1175 725.359375 1175 722.71875 1175 720 Z M 1175 720 "/>
<path style=" stroke:none;fill-rule:nonzero;fill:rgb(30.19608%,47.450981%,55.29412%);fill-opacity:1;" d="M 1221 660 C 1226.945312 660.867188 1231.042969 665.820312 1235 670 C 1237.75 674.023438 1239.394531 678.140625 1240 683 C 1239.339844 683 1238.679688 683 1238 683 C 1237.671875 683.660156 1237.339844 684.320312 1237 685 C 1236.828125 684.421875 1236.660156 683.839844 1236.484375 683.242188 C 1233.9375 675.039062 1230.386719 670.003906 1223.707031 664.613281 C 1222 663 1222 663 1221 660 Z M 1221 660 "/>
<path style=" stroke:none;fill-rule:nonzero;fill:rgb(25.882354%,43.137255%,52.156866%);fill-opacity:1;" d="M 1246 726 C 1248 726 1248 726 1249.625 727.125 C 1251.644531 729.878906 1251.476562 731.667969 1251 735 C 1249.5 737.375 1249.5 737.375 1247 739 C 1243.5 739.625 1240.261719 739.691406 1237.0625 737.9375 C 1235.488281 735.066406 1235.304688 732.226562 1235 729 C 1235.660156 728.671875 1236.320312 728.339844 1237 728 C 1237.390625 728.96875 1237.785156 729.9375 1238.1875 730.9375 C 1239.679688 734.179688 1239.679688 734.179688 1242.5625 735 C 1243.367188 735 1244.171875 735 1245 735 C 1245.660156 734.339844 1246.320312 733.679688 1247 733 C 1246.675781 729.402344 1246.675781 729.402344 1246 726 Z M 1246 726 "/>
<path style=" stroke:none;fill-rule:nonzero;fill:rgb(76.862746%,77.64706%,79.215688%);fill-opacity:1;" d="M 1164 679 C 1164.988281 679.496094 1164.988281 679.496094 1166 680 C 1167.390625 686.492188 1167.125 693.394531 1167 700 C 1169.308594 700.660156 1171.621094 701.320312 1174 702 C 1173.53125 706.054688 1173.121094 709.464844 1171 713 C 1169.378906 710.429688 1168.957031 709.324219 1169.375 706.25 C 1169.582031 705.507812 1169.789062 704.765625 1170 704 C 1168.019531 703.011719 1166.039062 702.019531 1164 701 C 1164 693.738281 1164 686.480469 1164 679 Z M 1164 679 "/>
<path style=" stroke:none;fill-rule:nonzero;fill:rgb(54.901963%,69.01961%,73.333335%);fill-opacity:1;" d="M 1240 727 C 1242.308594 727.328125 1244.621094 727.660156 1247 728 C 1247.6875 730.3125 1247.6875 730.3125 1248 733 C 1246.875 734.875 1246.875 734.875 1245 736 C 1240.578125 735.578125 1240.578125 735.578125 1239 734 C 1239.289062 731.660156 1239.621094 729.324219 1240 727 Z M 1240 727 "/>
<path style=" stroke:none;fill-rule:nonzero;fill:rgb(32.549021%,48.235294%,56.078434%);fill-opacity:1;" d="M 1241 712 C 1241.328125 712 1241.660156 712 1242 712 C 1242.039062 712.757812 1242.074219 713.519531 1242.113281 714.300781 C 1242.179688 715.292969 1242.246094 716.289062 1242.3125 717.3125 C 1242.398438 718.792969 1242.398438 718.792969 1242.488281 720.300781 C 1243.046875 723.242188 1243.683594 724.183594 1246 726 C 1245.671875 726.660156 1245.339844 727.320312 1245 728 C 1243.351562 727.671875 1241.699219 727.339844 1240 727 C 1239.671875 728.980469 1239.339844 730.960938 1239 733 C 1237 730 1237 730 1236 727 C 1237.375 725.5 1237.375 725.5 1239 724 C 1239.660156 724 1240.320312 724 1241 724 C 1241 720.039062 1241 716.078125 1241 712 Z M 1246 724 C 1247.9375 724.8125 1247.9375 724.8125 1250 726 C 1250.328125 726.988281 1250.660156 727.980469 1251 729 C 1250.011719 728.671875 1249.019531 728.339844 1248 728 C 1248 727.339844 1248 726.679688 1248 726 C 1247.339844 726 1246.679688 726 1246 726 C 1246 725.339844 1246 724.679688 1246 724 Z M 1246 724 "/>
<path style=" stroke:none;fill-rule:nonzero;fill:rgb(24.705882%,42.352942%,51.372552%);fill-opacity:1;" d="M 1241 700 C 1241.328125 700 1241.660156 700 1242 700 C 1244.578125 708.417969 1245 717.226562 1245 726 C 1242.9375 724.316406 1242.078125 723.355469 1241.488281 720.722656 C 1241.429688 719.84375 1241.371094 718.96875 1241.3125 718.0625 C 1241.25 717.097656 1241.183594 716.132812 1241.117188 715.140625 C 1240.929688 710.089844 1240.921875 705.050781 1241 700 Z M 1241 700 "/>
<path style=" stroke:none;fill-rule:nonzero;fill:rgb(25.098041%,42.745098%,51.372552%);fill-opacity:1;" d="M 1171 715 C 1171.988281 715.328125 1172.980469 715.660156 1174 716 C 1175.003906 719.015625 1175.101562 721.042969 1175.0625 724.1875 C 1175.054688 725.089844 1175.042969 725.988281 1175.035156 726.917969 C 1175.023438 727.605469 1175.011719 728.292969 1175 729 C 1172.375 726.375 1172.417969 724.511719 1171.875 720.875 C 1171.707031 719.78125 1171.539062 718.683594 1171.367188 717.554688 C 1171.246094 716.710938 1171.125 715.867188 1171 715 Z M 1171 715 "/>
<path style=" stroke:none;fill-rule:nonzero;fill:rgb(26.274511%,43.137255%,52.156866%);fill-opacity:1;" d="M 1158 693 C 1158.328125 693 1158.660156 693 1159 693 C 1159.191406 697.824219 1158.757812 701.496094 1157 706 C 1156.671875 706 1156.339844 706 1156 706 C 1155.945312 704.582031 1155.90625 703.167969 1155.875 701.75 C 1155.851562 700.960938 1155.828125 700.171875 1155.804688 699.359375 C 1156.015625 696.792969 1156.714844 695.207031 1158 693 Z M 1158 693 "/>
<path style=" stroke:none;fill-rule:nonzero;fill:rgb(64.313728%,71.372551%,74.901962%);fill-opacity:1;" d="M 1168 713 C 1170.359375 715.144531 1171.910156 716.984375 1173 720 C 1173.078125 722.332031 1173.089844 724.667969 1173 727 C 1172.671875 727 1172.339844 727 1172 727 C 1171.566406 725.359375 1171.566406 725.359375 1171.125 723.6875 C 1170.179688 719.960938 1170.179688 719.960938 1168 717 C 1168 715.679688 1168 714.359375 1168 713 Z M 1168 713 "/>
<path style=" stroke:none;fill-rule:nonzero;fill:rgb(30.980393%,48.627451%,56.078434%);fill-opacity:1;" d="M 1178 660 C 1178.660156 660.328125 1179.320312 660.660156 1180 661 C 1178.019531 663.308594 1176.039062 665.621094 1174 668 C 1173.671875 667.011719 1173.339844 666.019531 1173 665 C 1174.648438 663.351562 1176.300781 661.699219 1178 660 Z M 1178 660 "/>
<path style=" stroke:none;fill-rule:nonzero;fill:rgb(32.941177%,48.235294%,56.078434%);fill-opacity:1;" d="M 1158 688 C 1158.988281 688.328125 1159.980469 688.660156 1161 689 C 1160.671875 691.308594 1160.339844 693.621094 1160 696 C 1159.011719 696 1158.019531 696 1157 696 C 1157.328125 693.359375 1157.660156 690.71875 1158 688 Z M 1158 688 "/>
</g>
</svg>
